<?xml version="1.0" standalone="no"?>
<!DOCTYPE svg PUBLIC "-//W3C//DTD SVG 20010904//EN"
 "http://www.w3.org/TR/2001/REC-SVG-20010904/DTD/svg10.dtd">
<svg version="1.0" xmlns="http://www.w3.org/2000/svg"
 width="1000.000000pt" height="1000.000000pt" viewBox="0 0 1000.000000 1000.000000"
 preserveAspectRatio="xMidYMid meet">

<g transform="translate(0.000000,1000.000000) scale(0.100000,-0.100000)"
fill="#000000" stroke="none">
<path d="M0 5000 l0 -5000 5000 0 5000 0 0 5000 0 5000 -5000 0 -5000 0 0
-5000z m7834 2848 c-13 -68 -32 -170 -43 -228 -11 -58 -25 -141 -31 -185 -6
-44 -19 -123 -30 -175 -23 -106 -45 -229 -55 -305 -6 -47 -37 -210 -70 -373
-8 -40 -15 -86 -15 -102 0 -15 -9 -74 -20 -130 -11 -56 -20 -104 -20 -107 0
-6 -172 153 -411 379 l-166 158 -139 -142 c-76 -78 -182 -185 -234 -239 -52
-53 -158 -162 -235 -242 -77 -81 -196 -204 -265 -275 -69 -71 -213 -220 -320
-333 -275 -287 -439 -458 -554 -576 l-99 -102 -35 32 c-88 82 -124 115 -167
152 -62 54 -130 116 -185 169 -25 23 -76 69 -115 102 -38 32 -110 96 -159 141
-49 46 -92 83 -95 83 -8 0 -297 -292 -761 -770 -427 -440 -642 -660 -815 -835
-71 -73 -174 -178 -228 -235 -54 -56 -100 -100 -102 -98 -2 1 -71 68 -154 148
-83 79 -150 147 -149 151 2 4 131 139 288 301 157 161 367 376 465 478 258
266 417 429 603 616 89 91 162 169 162 173 0 5 13 17 29 28 15 10 59 52 97 93
38 41 125 132 194 201 69 69 173 176 232 237 59 62 111 112 115 112 7 0 65
-51 338 -294 43 -39 98 -89 122 -111 23 -22 65 -60 92 -85 28 -25 73 -65 99
-90 27 -25 61 -56 76 -69 l27 -24 27 24 c40 35 146 144 337 344 94 98 229 239
301 314 700 727 869 905 872 917 2 8 -12 29 -30 47 -155 147 -242 229 -356
337 -115 108 -129 126 -112 132 11 4 91 24 178 43 86 20 225 52 307 72 83 19
193 44 245 54 52 10 142 30 200 44 58 14 130 30 160 36 30 6 132 28 225 50
218 51 388 87 396 83 3 -2 -4 -59 -17 -126z m-204 -4108 l0 -1740 -385 0 -385
0 0 1740 0 1740 385 0 385 0 0 -1740z m-1410 -445 l0 -1295 -390 0 -390 0 0
1295 0 1295 390 0 390 0 0 -1295z m-1480 -315 l0 -980 -384 0 -384 0 -6 28
c-6 35 -7 1913 0 1924 3 4 178 8 390 8 l384 0 0 -980z m-1310 -395 l0 -585
-385 0 -385 0 0 585 0 585 385 0 385 0 0 -585z"/>
</g>
</svg>
