<svg id="svg" version="1.1" xmlns="http://www.w3.org/2000/svg" xmlns:xlink="http://www.w3.org/1999/xlink" width="400" height="400" viewBox="0, 0, 400,400"><g id="svgg"><path id="path0" d="M0.000 200.000 L 0.000 400.000 200.000 400.000 L 400.000 400.000 400.000 200.000 L 400.000 0.000 200.000 0.000 L 0.000 0.000 0.000 200.000 M314.269 81.700 C 313.672 84.172,311.996 93.381,311.630 96.200 C 311.203 99.496,311.038 100.446,309.647 107.600 C 308.557 113.203,307.241 120.641,306.568 125.000 C 306.432 125.880,306.079 127.590,305.784 128.800 C 305.488 130.010,304.964 132.980,304.618 135.400 C 304.272 137.820,303.511 142.297,302.926 145.348 L 301.864 150.896 299.978 148.948 C 298.940 147.877,297.212 146.190,296.136 145.200 C 295.061 144.210,290.973 140.340,287.052 136.600 C 283.130 132.860,279.640 129.639,279.295 129.443 C 278.609 129.053,276.611 131.019,258.412 150.000 C 253.033 155.610,245.835 163.097,242.416 166.638 C 238.997 170.179,233.050 176.366,229.200 180.387 C 218.399 191.666,211.696 198.610,208.280 202.057 L 205.160 205.205 200.080 200.739 C 197.286 198.283,193.390 194.816,191.421 193.036 C 185.866 188.013,184.788 187.043,182.000 184.563 C 180.570 183.291,178.745 181.605,177.944 180.816 C 174.498 177.422,177.048 175.425,152.200 200.978 C 147.360 205.956,141.050 212.407,138.178 215.314 C 135.306 218.221,125.349 228.430,116.050 238.000 C 106.752 247.570,98.988 255.456,98.797 255.525 C 98.606 255.594,95.661 252.922,92.253 249.588 L 86.056 243.526 91.128 238.406 C 100.730 228.713,109.072 220.168,121.594 207.200 C 133.422 194.950,142.866 185.267,150.219 177.848 C 151.990 176.062,158.054 169.833,163.696 164.006 L 173.953 153.413 175.632 155.006 C 176.556 155.883,177.977 157.230,178.790 158.000 C 179.604 158.770,181.514 160.507,183.035 161.859 C 184.556 163.211,189.940 168.020,195.000 172.545 L 204.200 180.772 208.400 176.486 C 212.623 172.177,226.175 158.082,232.277 151.653 C 236.704 146.988,245.040 138.341,251.600 131.608 C 254.570 128.560,258.935 124.078,261.300 121.649 C 266.372 116.438,266.213 117.096,263.100 114.180 C 243.399 95.727,243.660 96.000,245.712 96.000 C 246.213 96.000,249.588 95.253,253.212 94.341 C 256.835 93.428,260.700 92.554,261.800 92.398 C 262.900 92.242,265.957 91.547,268.594 90.853 C 271.231 90.158,274.921 89.308,276.794 88.963 C 278.667 88.618,283.188 87.630,286.841 86.768 C 290.493 85.906,293.810 85.200,294.211 85.200 C 294.612 85.200,298.194 84.405,302.170 83.433 C 308.172 81.966,311.365 81.278,314.143 80.853 C 314.332 80.824,314.389 81.205,314.269 81.700 M304.300 180.788 L 305.200 180.800 305.200 250.400 L 305.200 320.000 289.800 320.000 L 274.400 320.000 274.400 250.418 L 274.400 180.837 277.100 180.718 C 279.155 180.628,295.747 180.671,304.300 180.788 M248.800 268.200 L 248.800 320.000 233.200 320.000 L 217.600 320.000 217.600 268.200 L 217.600 216.400 233.200 216.400 L 248.800 216.400 248.800 268.200 M189.712 264.900 C 189.663 277.715,189.618 295.355,189.612 304.100 L 189.600 320.000 174.000 320.000 L 158.400 320.000 158.400 281.067 C 158.400 259.653,158.520 242.013,158.667 241.867 C 158.813 241.720,165.878 241.600,174.367 241.600 L 189.800 241.600 189.712 264.900 M137.200 296.600 L 137.200 320.000 121.800 320.000 L 106.400 320.000 106.400 296.600 L 106.400 273.200 121.800 273.200 L 137.200 273.200 137.200 296.600 " stroke="none" fill="#1b1b1b" fill-rule="evenodd"></path><path id="path1" d="M96.115 233.500 C 91.252 238.505,87.040 242.826,86.755 243.102 C 86.242 243.598,86.750 244.139,97.313 254.323 L 98.686 255.646 101.137 253.123 C 102.485 251.735,106.606 247.521,110.294 243.759 C 125.123 228.631,126.475 227.191,125.546 227.518 C 124.333 227.946,120.939 227.881,120.520 227.423 C 120.344 227.230,120.389 227.179,120.619 227.309 C 120.850 227.440,121.253 227.415,121.515 227.253 C 121.777 227.090,120.659 226.964,119.029 226.971 C 117.400 226.978,116.143 227.107,116.235 227.257 C 116.425 227.564,115.611 227.496,115.000 227.154 C 114.780 227.030,112.560 226.948,110.066 226.971 C 107.572 226.994,105.452 226.884,105.355 226.727 C 105.258 226.570,105.514 226.506,105.923 226.585 C 106.333 226.664,106.915 226.576,107.218 226.389 C 107.564 226.175,107.257 226.101,106.383 226.190 C 105.623 226.267,105.000 226.360,105.000 226.395 C 105.000 226.430,104.550 226.537,104.000 226.631 C 103.450 226.725,103.180 226.667,103.400 226.501 C 103.977 226.067,105.358 224.400,105.140 224.400 C 105.039 224.400,100.978 228.495,96.115 233.500 M217.600 276.081 L 217.600 320.000 233.200 320.000 L 248.800 320.000 248.800 276.684 L 248.800 233.367 244.500 233.411 C 242.135 233.435,239.840 233.269,239.400 233.042 C 238.371 232.510,237.131 232.454,236.518 232.910 C 236.252 233.107,235.802 233.121,235.518 232.941 C 234.826 232.502,233.555 232.472,232.724 232.875 C 232.353 233.055,231.954 233.049,231.838 232.862 C 231.576 232.438,229.989 232.506,229.239 232.973 C 228.861 233.208,228.503 233.082,228.139 232.585 C 227.742 232.042,227.598 231.999,227.594 232.424 C 227.589 232.910,227.527 232.906,227.200 232.400 C 226.855 231.867,226.811 231.867,226.800 232.400 C 226.789 232.933,226.745 232.933,226.400 232.400 C 226.055 231.867,226.011 231.867,226.000 232.400 C 225.992 232.767,225.874 232.839,225.694 232.584 C 225.525 232.346,223.739 232.167,221.500 232.165 L 217.600 232.162 217.600 276.081 M274.400 277.492 L 274.400 320.000 289.802 320.000 L 305.204 320.000 305.102 278.100 L 305.000 236.200 304.045 236.334 C 303.520 236.408,302.937 236.228,302.751 235.934 C 302.479 235.505,302.410 235.518,302.400 236.000 C 302.389 236.533,302.345 236.533,302.000 236.000 C 301.655 235.467,301.611 235.467,301.600 236.000 C 301.589 236.533,301.545 236.533,301.200 236.000 C 300.895 235.529,300.811 235.518,300.806 235.949 C 300.802 236.321,300.638 236.377,300.300 236.124 C 300.025 235.919,296.592 235.769,292.671 235.791 C 288.751 235.813,285.456 235.691,285.351 235.520 C 285.245 235.349,285.420 235.309,285.739 235.432 C 286.058 235.554,286.410 235.507,286.521 235.327 C 286.633 235.147,285.407 234.999,283.798 234.997 C 282.189 234.996,280.947 235.115,281.038 235.262 C 281.129 235.409,280.888 235.469,280.502 235.395 C 280.116 235.322,279.800 235.228,279.800 235.188 C 279.800 235.148,278.585 235.086,277.100 235.050 L 274.400 234.985 274.400 277.492 M158.650 241.918 C 158.370 242.372,158.373 318.664,158.653 319.395 C 158.855 319.921,160.900 320.000,174.243 320.000 L 189.600 320.000 189.600 280.800 L 189.600 241.600 174.224 241.600 C 165.767 241.600,158.759 241.743,158.650 241.918 M106.400 296.600 L 106.400 320.000 121.800 320.000 L 137.200 320.000 137.200 296.600 L 137.200 273.200 121.800 273.200 L 106.400 273.200 106.400 296.600 " stroke="none" fill="#69afa3" fill-rule="evenodd"></path><path id="path2" d="M310.600 81.697 C 308.840 82.114,306.320 82.624,305.000 82.829 C 303.680 83.034,302.150 83.367,301.600 83.569 C 300.368 84.022,288.152 86.778,275.400 89.480 C 273.860 89.806,269.540 90.801,265.800 91.691 C 262.060 92.581,257.830 93.536,256.400 93.813 C 253.560 94.364,247.666 95.747,245.867 96.284 L 244.735 96.622 247.067 98.775 C 248.350 99.959,252.100 103.480,255.400 106.600 C 258.700 109.720,262.353 113.146,263.518 114.213 C 264.782 115.370,265.588 116.427,265.518 116.834 C 265.453 117.209,258.830 124.347,250.800 132.696 C 242.770 141.045,233.140 151.093,229.400 155.027 C 212.645 172.647,204.665 180.800,204.174 180.800 C 203.829 180.800,200.498 177.896,192.619 170.727 C 191.728 169.917,190.039 168.387,188.864 167.327 C 187.690 166.267,186.255 164.950,185.676 164.400 C 182.873 161.739,174.173 154.014,173.971 154.007 C 173.846 154.003,169.346 158.527,163.971 164.061 C 158.597 169.594,150.240 178.138,145.400 183.047 C 140.560 187.956,133.360 195.319,129.400 199.410 C 125.440 203.500,119.860 209.237,117.000 212.159 C 111.299 217.983,105.504 224.086,104.106 225.737 L 103.211 226.793 104.106 226.626 C 104.598 226.535,105.000 226.430,105.000 226.395 C 105.000 226.360,105.623 226.267,106.383 226.190 C 107.257 226.101,107.564 226.175,107.218 226.389 C 106.915 226.576,106.333 226.664,105.923 226.585 C 105.514 226.506,105.258 226.570,105.355 226.727 C 105.452 226.884,107.572 226.994,110.066 226.971 C 112.560 226.948,114.780 227.032,115.000 227.158 C 115.528 227.459,118.889 227.529,119.399 227.249 C 120.107 226.861,122.228 226.812,121.603 227.198 C 121.292 227.390,120.867 227.441,120.657 227.312 C 120.448 227.182,120.379 227.242,120.504 227.444 C 120.691 227.747,123.308 227.854,125.500 227.647 C 125.776 227.621,127.126 226.402,128.500 224.938 C 129.875 223.474,133.970 219.286,137.600 215.632 C 141.230 211.977,147.440 205.658,151.400 201.589 C 165.488 187.114,174.534 178.000,174.813 178.000 C 174.969 178.000,176.695 179.489,178.648 181.310 C 180.602 183.130,183.550 185.765,185.200 187.166 C 186.850 188.568,189.902 191.263,191.982 193.157 C 194.063 195.051,196.388 197.140,197.149 197.800 C 198.684 199.132,201.417 201.602,203.686 203.711 L 205.171 205.091 209.086 201.044 C 211.239 198.818,216.868 192.948,221.596 187.998 C 239.496 169.260,248.786 159.591,253.376 154.919 C 255.149 153.115,259.120 149.013,262.200 145.804 C 265.280 142.596,270.285 137.443,273.322 134.354 L 278.843 128.738 280.677 130.429 C 281.686 131.359,284.512 134.041,286.956 136.390 C 289.400 138.740,293.766 142.853,296.659 145.532 L 301.917 150.403 302.349 147.902 C 302.587 146.526,302.968 144.050,303.196 142.400 C 303.424 140.750,304.231 136.340,304.988 132.600 C 305.745 128.860,306.457 124.837,306.571 123.660 C 306.774 121.560,307.546 117.351,308.599 112.600 C 308.892 111.280,309.426 108.310,309.787 106.000 C 310.149 103.690,310.790 99.910,311.214 97.600 C 314.663 78.790,314.738 80.716,310.600 81.697 M274.492 207.900 L 274.600 235.000 277.000 235.010 C 278.320 235.015,279.580 235.116,279.800 235.234 C 280.170 235.431,284.200 235.404,284.200 235.204 C 284.200 235.155,284.772 235.082,285.471 235.042 C 286.170 235.002,286.647 235.124,286.531 235.312 C 286.414 235.500,286.058 235.554,285.739 235.432 C 285.420 235.309,285.246 235.350,285.353 235.523 C 285.459 235.696,288.814 235.826,292.807 235.812 C 296.801 235.798,300.165 235.944,300.284 236.136 C 300.403 236.328,300.655 236.241,300.844 235.943 C 301.124 235.500,301.190 235.511,301.200 236.000 C 301.211 236.533,301.255 236.533,301.600 236.000 C 301.945 235.467,301.989 235.467,302.000 236.000 C 302.011 236.533,302.055 236.533,302.400 236.000 C 302.665 235.590,302.790 235.560,302.794 235.906 C 302.798 236.222,303.253 236.378,304.000 236.321 L 305.200 236.230 305.200 208.515 L 305.200 180.800 289.792 180.800 L 274.384 180.800 274.492 207.900 M217.867 216.667 C 217.339 217.195,217.561 231.901,218.100 232.081 C 218.375 232.173,220.130 232.226,222.000 232.199 C 224.006 232.170,225.521 232.324,225.694 232.575 C 225.878 232.841,225.992 232.776,226.000 232.400 C 226.011 231.867,226.055 231.867,226.400 232.400 C 226.745 232.933,226.789 232.933,226.800 232.400 C 226.811 231.867,226.855 231.867,227.200 232.400 C 227.527 232.906,227.589 232.910,227.594 232.424 C 227.598 231.999,227.742 232.042,228.139 232.585 C 228.503 233.082,228.861 233.208,229.239 232.973 C 229.989 232.506,231.576 232.438,231.838 232.862 C 231.954 233.049,232.353 233.055,232.724 232.875 C 233.555 232.472,234.826 232.502,235.518 232.941 C 235.802 233.121,236.252 233.107,236.518 232.910 C 237.130 232.454,238.369 232.510,239.400 233.039 C 239.840 233.265,242.090 233.435,244.400 233.418 L 248.600 233.386 248.708 224.893 L 248.816 216.400 233.475 216.400 C 225.037 216.400,218.013 216.520,217.867 216.667 " stroke="none" fill="#a9c481" fill-rule="evenodd"></path><path id="path3" d="" stroke="none" fill="#607454" fill-rule="evenodd"></path><path id="path4" d="" stroke="none" fill="#62683e" fill-rule="evenodd"></path><path id="path5" d="M310.493 101.600 C 310.493 102.370,310.575 102.685,310.676 102.300 C 310.776 101.915,310.776 101.285,310.676 100.900 C 310.575 100.515,310.493 100.830,310.493 101.600 " stroke="none" fill="#848c4c" fill-rule="evenodd"></path><path id="path6" d="" stroke="none" fill="#49573c" fill-rule="evenodd"></path><path id="path7" d="" stroke="none" fill="#42452c" fill-rule="evenodd"></path></g></svg>